<?xml version="1.0" encoding="UTF-8" standalone="no"?>
<!DOCTYPE svg PUBLIC "-//W3C//DTD SVG 1.1//EN" "http://www.w3.org/Graphics/SVG/1.1/DTD/svg11.dtd">
<svg width="100%" height="100%" viewBox="0 0 62 62" version="1.1" xmlns="http://www.w3.org/2000/svg" xmlns:xlink="http://www.w3.org/1999/xlink" xml:space="preserve" xmlns:serif="http://www.serif.com/" style="fill-rule:evenodd;clip-rule:evenodd;stroke-linejoin:round;stroke-miterlimit:2;">
    <g transform="matrix(1,0,0,1,-418,-40)">
        <g transform="matrix(0.228949,0,0,0.228949,441.958,66.7092)">
            <path d="M0,37.483C22.471,37.483 40.708,55.45 40.708,77.516C40.708,78.073 40.659,78.618 40.634,79.165L-40.634,79.165C-40.654,78.619 -40.703,78.073 -40.703,77.516C-40.703,55.45 -22.47,37.483 0,37.483M39.507,31.025C57.207,38.531 72.374,51.092 77.96,79.313L60.633,79.313C61.047,55.765 50.276,44.049 39.507,31.025M133.497,-101.547C143.401,-101.547 151.312,-93.415 151.312,-83.324L151.312,-36.919C127.857,-54.162 99.159,-64.326 68.213,-64.326C-9.488,-64.326 -72.784,-0.346 -75.304,79.455L-90.207,79.455L-90.207,-83.324C-90.207,-93.415 -82.228,-101.547 -72.32,-101.547L133.497,-101.547ZM-74.362,-116.66C-91.123,-116.66 -104.644,-102.883 -104.644,-85.807L-104.644,123.363C-104.644,140.444 -91.123,154.143 -74.362,154.143L135.636,154.143C152.392,154.143 165.913,140.444 165.913,123.363L165.913,-85.807C165.913,-102.883 152.392,-116.66 135.636,-116.66L-74.362,-116.66ZM-86.427,136.958L-88.922,124.864L-69.912,124.864C-69.578,124.864 -69.351,124.801 -69.223,124.677C-69.101,124.554 -69.036,124.303 -69.036,123.929L-69.036,120.814C-69.036,120.104 -69.372,119.755 -70.036,119.755L-80.137,119.755C-82.002,119.755 -83.543,119.608 -84.749,119.317C-85.95,119.027 -86.91,118.539 -87.613,117.85C-88.323,117.166 -88.819,116.231 -89.11,115.044C-89.4,113.863 -89.547,112.357 -89.547,110.526L-89.547,101.424C-89.547,99.554 -89.381,97.998 -89.046,96.753C-88.716,95.503 -88.155,94.509 -87.362,93.76C-86.575,93.012 -85.547,92.47 -84.276,92.136C-83.011,91.806 -81.46,91.638 -79.634,91.638L-57.065,91.638L-54.574,103.733L-74.712,103.733C-75.042,103.733 -75.259,103.797 -75.366,103.919C-75.469,104.043 -75.52,104.294 -75.52,104.668L-75.52,108.158C-75.52,108.487 -75.461,108.739 -75.332,108.906C-75.208,109.073 -74.958,109.153 -74.583,109.153L-63.612,109.153C-61.786,109.153 -60.27,109.29 -59.064,109.561C-57.858,109.832 -56.893,110.318 -56.164,111.028C-55.436,111.732 -54.919,112.686 -54.604,113.892C-54.294,115.098 -54.137,116.615 -54.137,118.446L-54.137,127.419C-54.137,129.25 -54.313,130.776 -54.668,132.002C-55.023,133.227 -55.583,134.208 -56.352,134.931C-57.119,135.659 -58.139,136.181 -59.403,136.491C-60.673,136.801 -62.219,136.958 -64.05,136.958L-86.427,136.958ZM-31.636,122.433L-24.031,122.433L-27.832,103.856L-31.636,122.433ZM-49.465,136.958L-38.055,91.638L-17.671,91.638L-6.203,136.958L-21.038,136.958L-21.973,132.096L-33.629,132.096L-34.629,136.958L-49.465,136.958ZM16.125,109.531L23.356,91.638L39.128,91.638L29.839,113.085L39.128,136.958L22.362,136.958L16.81,120.499L14.191,120.499L14.191,136.958L-1.393,136.958L-1.393,91.638L14.191,91.638L14.191,109.531L16.125,109.531ZM59.806,122.433L67.411,122.433L63.607,103.856L59.806,122.433ZM41.973,136.958L53.382,91.638L73.766,91.638L85.241,136.958L70.399,136.958L69.469,132.096L57.808,132.096L56.813,136.958L41.973,136.958ZM104.571,112.647L110.118,112.647C111.742,112.647 112.82,112.406 113.361,111.929C113.903,111.451 114.174,110.609 114.174,109.403L114.174,105.791C114.174,104.004 113.322,103.108 111.619,103.108L104.571,103.108L104.571,112.647ZM106.692,122.929L104.822,122.929L104.822,136.958L90.049,136.958L90.049,91.638L117.974,91.638C121.547,91.638 124.156,92.426 125.8,94.006C127.44,95.586 128.261,98.16 128.261,101.739L128.261,113.646C128.261,114.601 128.114,115.512 127.824,116.388C127.533,117.259 127.109,118.028 126.549,118.692C125.988,119.356 125.278,119.888 124.427,120.282C123.576,120.675 122.611,120.877 121.528,120.877C122.482,121.083 123.231,121.488 123.773,122.093C124.313,122.694 124.747,123.515 125.082,124.554L129.443,136.958L113.549,136.958L109.434,124.992C109.188,124.323 108.843,123.815 108.404,123.461C107.972,123.107 107.396,122.929 106.692,122.929M134.799,91.638L149.014,91.638L149.014,136.958L134.799,136.958L134.799,91.638Z" style="fill:white;fill-rule:nonzero;"/>
        </g>
    </g>
</svg>
