<?xml version="1.0" encoding="UTF-8" standalone="no"?>
<!DOCTYPE svg PUBLIC "-//W3C//DTD SVG 1.1//EN" "http://www.w3.org/Graphics/SVG/1.1/DTD/svg11.dtd">
<svg width="100%" height="100%" viewBox="0 0 363 62" version="1.1" xmlns="http://www.w3.org/2000/svg" xmlns:xlink="http://www.w3.org/1999/xlink" xml:space="preserve" xmlns:serif="http://www.serif.com/" style="fill-rule:evenodd;clip-rule:evenodd;stroke-linejoin:round;stroke-miterlimit:2;">
    <g transform="matrix(1,0,0,1,-117.49,-40)">
        <g transform="matrix(1,0,0,1,0,40)">
            <path d="M117.49,21.918L125.606,20.43C126.288,22.768 128.04,23.937 130.864,23.937C133.062,23.937 134.16,23.342 134.16,22.152C134.16,21.528 133.903,21.046 133.388,20.706C132.888,20.352 131.984,20.04 130.676,19.771C125.683,18.793 122.477,17.518 121.058,15.945C119.639,14.372 118.93,12.522 118.93,10.397C118.93,7.662 119.945,5.387 121.976,3.573C124.021,1.76 126.955,0.853 130.78,0.853C136.581,0.853 140.413,3.226 142.276,7.973L135.037,10.205C134.286,8.264 132.763,7.293 130.468,7.293C128.562,7.293 127.609,7.896 127.609,9.1C127.609,9.639 127.825,10.057 128.256,10.354C128.687,10.652 129.522,10.935 130.76,11.204C134.167,11.941 136.588,12.593 138.02,13.16C139.453,13.727 140.649,14.698 141.609,16.072C142.568,17.433 143.048,19.041 143.048,20.897C143.048,23.831 141.88,26.212 139.543,28.04C137.206,29.854 134.14,30.761 130.342,30.761C123.402,30.761 119.118,27.813 117.49,21.918ZM187.113,30.314L185.507,24.596L177.871,24.596L176.16,30.314L169.066,30.314L177.871,1.299L187.113,1.299L196.022,30.314L187.113,30.314ZM179.352,18.262L183.984,18.262L181.668,9.844L179.352,18.262ZM249.643,30.314L240.066,30.314L235.143,19.346L232.201,23.618L232.201,30.314L223.96,30.314L223.96,1.299L232.201,1.299L232.201,13.288L240.066,1.299L247.911,1.299L240.713,11.906L249.643,30.314ZM292.978,30.314L291.371,24.596L283.735,24.596L282.024,30.314L274.931,30.314L283.735,1.299L292.978,1.299L301.887,30.314L292.978,30.314ZM285.216,18.262L289.848,18.262L287.532,9.844L285.216,18.262ZM355.173,30.314L345.472,30.314L341.32,19.218L338.566,19.218L338.566,30.314L329.824,30.314L329.824,1.299L344.7,1.299C347.982,1.299 350.528,2.085 352.336,3.658C354.158,5.217 355.069,7.279 355.069,9.844C355.069,11.516 354.735,12.997 354.068,14.287C353.4,15.562 352.051,16.689 350.02,17.666L355.173,30.314ZM338.566,13.011L342.301,13.011C343.399,13.011 344.283,12.777 344.95,12.31C345.618,11.842 345.952,11.155 345.952,10.248C345.952,8.392 344.832,7.463 342.593,7.463L338.566,7.463L338.566,13.011ZM393.292,1.299L393.292,30.314L384.55,30.314L384.55,1.299L393.292,1.299Z" style="fill:white;fill-rule:nonzero;"/>
        </g>
        <g transform="matrix(1,0,0,1,0,40)">
            <path d="M286.674,53.29L286.674,61.001L285.16,61.001C285.049,60.459 284.89,59.906 284.683,59.343C283.674,60.596 282.388,61.223 280.826,61.223C278.981,61.223 277.543,60.551 276.513,59.205C275.49,57.86 274.979,56.121 274.979,53.987C274.979,51.691 275.525,49.846 276.617,48.452C277.716,47.058 279.205,46.361 281.085,46.361C282.661,46.361 283.933,46.811 284.901,47.713C285.868,48.614 286.459,49.815 286.674,51.315L283.522,51.737C283.266,49.991 282.454,49.118 281.085,49.118C280.187,49.118 279.506,49.533 279.043,50.364C278.587,51.188 278.359,52.368 278.359,53.903C278.359,55.382 278.607,56.512 279.105,57.294C279.603,58.075 280.311,58.466 281.23,58.466C281.825,58.466 282.354,58.269 282.817,57.875C283.287,57.48 283.522,56.85 283.522,55.984L280.857,55.984L280.857,53.29L286.674,53.29ZM308.972,46.582L313.399,61.001L309.833,61.001L308.972,58.033L304.389,58.033L303.498,61.001L300.595,61.001L305.125,46.582L308.972,46.582ZM305.188,55.371L308.194,55.371L306.691,50.311L305.188,55.371ZM333.759,61.001L330.275,49.244L330.275,61.001L327.496,61.001L327.496,46.582L332.66,46.582L335.138,55.213L337.75,46.582L342.924,46.582L342.924,61.001L339.586,61.001L339.586,49.244L336.029,61.001L333.759,61.001ZM368.457,49.329L361.708,49.329L361.708,52.287L367.016,52.287L367.016,55.001L361.708,55.001L361.708,58.149L368.457,58.149L368.457,61.001L358.338,61.001L358.338,46.582L368.457,46.582L368.457,49.329ZM392.829,49.751L390.009,50.713C389.629,49.572 388.824,49.001 387.593,49.001C386.28,49.001 385.623,49.434 385.623,50.301C385.623,50.646 385.744,50.938 385.986,51.177C386.235,51.417 386.792,51.625 387.656,51.801C389.1,52.096 390.158,52.396 390.828,52.698C391.499,53.001 392.062,53.491 392.518,54.167C392.981,54.836 393.213,55.586 393.213,56.417C393.213,57.72 392.719,58.846 391.73,59.797C390.749,60.748 389.29,61.223 387.355,61.223C385.903,61.223 384.666,60.889 383.643,60.22C382.627,59.543 381.957,58.544 381.632,57.22L384.701,56.512C385.046,57.857 386.007,58.529 387.583,58.529C388.343,58.529 388.91,58.382 389.283,58.086C389.657,57.783 389.843,57.424 389.843,57.008C389.843,56.586 389.674,56.258 389.335,56.026C388.997,55.794 388.343,55.575 387.376,55.371C385.572,54.991 384.286,54.473 383.519,53.818C382.752,53.156 382.368,52.191 382.368,50.924C382.368,49.642 382.824,48.561 383.736,47.681C384.656,46.801 385.9,46.361 387.469,46.361C390.248,46.361 392.034,47.491 392.829,49.751Z" style="fill:white;fill-rule:nonzero;"/>
        </g>
        <g transform="matrix(0.228949,0,0,0.228949,441.958,66.7092)">
            <path d="M0,37.483C22.471,37.483 40.708,55.45 40.708,77.516C40.708,78.073 40.659,78.618 40.634,79.165L-40.634,79.165C-40.654,78.619 -40.703,78.073 -40.703,77.516C-40.703,55.45 -22.47,37.483 0,37.483M39.507,31.025C57.207,38.531 72.374,51.092 77.96,79.313L60.633,79.313C61.047,55.765 50.276,44.049 39.507,31.025M133.497,-101.547C143.401,-101.547 151.312,-93.415 151.312,-83.324L151.312,-36.919C127.857,-54.162 99.159,-64.326 68.213,-64.326C-9.488,-64.326 -72.784,-0.346 -75.304,79.455L-90.207,79.455L-90.207,-83.324C-90.207,-93.415 -82.228,-101.547 -72.32,-101.547L133.497,-101.547ZM-74.362,-116.66C-91.123,-116.66 -104.644,-102.883 -104.644,-85.807L-104.644,123.363C-104.644,140.444 -91.123,154.143 -74.362,154.143L135.636,154.143C152.392,154.143 165.913,140.444 165.913,123.363L165.913,-85.807C165.913,-102.883 152.392,-116.66 135.636,-116.66L-74.362,-116.66ZM-86.427,136.958L-88.922,124.864L-69.912,124.864C-69.578,124.864 -69.351,124.801 -69.223,124.677C-69.101,124.554 -69.036,124.303 -69.036,123.929L-69.036,120.814C-69.036,120.104 -69.372,119.755 -70.036,119.755L-80.137,119.755C-82.002,119.755 -83.543,119.608 -84.749,119.317C-85.95,119.027 -86.91,118.539 -87.613,117.85C-88.323,117.166 -88.819,116.231 -89.11,115.044C-89.4,113.863 -89.547,112.357 -89.547,110.526L-89.547,101.424C-89.547,99.554 -89.381,97.998 -89.046,96.753C-88.716,95.503 -88.155,94.509 -87.362,93.76C-86.575,93.012 -85.547,92.47 -84.276,92.136C-83.011,91.806 -81.46,91.638 -79.634,91.638L-57.065,91.638L-54.574,103.733L-74.712,103.733C-75.042,103.733 -75.259,103.797 -75.366,103.919C-75.469,104.043 -75.52,104.294 -75.52,104.668L-75.52,108.158C-75.52,108.487 -75.461,108.739 -75.332,108.906C-75.208,109.073 -74.958,109.153 -74.583,109.153L-63.612,109.153C-61.786,109.153 -60.27,109.29 -59.064,109.561C-57.858,109.832 -56.893,110.318 -56.164,111.028C-55.436,111.732 -54.919,112.686 -54.604,113.892C-54.294,115.098 -54.137,116.615 -54.137,118.446L-54.137,127.419C-54.137,129.25 -54.313,130.776 -54.668,132.002C-55.023,133.227 -55.583,134.208 -56.352,134.931C-57.119,135.659 -58.139,136.181 -59.403,136.491C-60.673,136.801 -62.219,136.958 -64.05,136.958L-86.427,136.958ZM-31.636,122.433L-24.031,122.433L-27.832,103.856L-31.636,122.433ZM-49.465,136.958L-38.055,91.638L-17.671,91.638L-6.203,136.958L-21.038,136.958L-21.973,132.096L-33.629,132.096L-34.629,136.958L-49.465,136.958ZM16.125,109.531L23.356,91.638L39.128,91.638L29.839,113.085L39.128,136.958L22.362,136.958L16.81,120.499L14.191,120.499L14.191,136.958L-1.393,136.958L-1.393,91.638L14.191,91.638L14.191,109.531L16.125,109.531ZM59.806,122.433L67.411,122.433L63.607,103.856L59.806,122.433ZM41.973,136.958L53.382,91.638L73.766,91.638L85.241,136.958L70.399,136.958L69.469,132.096L57.808,132.096L56.813,136.958L41.973,136.958ZM104.571,112.647L110.118,112.647C111.742,112.647 112.82,112.406 113.361,111.929C113.903,111.451 114.174,110.609 114.174,109.403L114.174,105.791C114.174,104.004 113.322,103.108 111.619,103.108L104.571,103.108L104.571,112.647ZM106.692,122.929L104.822,122.929L104.822,136.958L90.049,136.958L90.049,91.638L117.974,91.638C121.547,91.638 124.156,92.426 125.8,94.006C127.44,95.586 128.261,98.16 128.261,101.739L128.261,113.646C128.261,114.601 128.114,115.512 127.824,116.388C127.533,117.259 127.109,118.028 126.549,118.692C125.988,119.356 125.278,119.888 124.427,120.282C123.576,120.675 122.611,120.877 121.528,120.877C122.482,121.083 123.231,121.488 123.773,122.093C124.313,122.694 124.747,123.515 125.082,124.554L129.443,136.958L113.549,136.958L109.434,124.992C109.188,124.323 108.843,123.815 108.404,123.461C107.972,123.107 107.396,122.929 106.692,122.929M134.799,91.638L149.014,91.638L149.014,136.958L134.799,136.958L134.799,91.638Z" style="fill:white;fill-rule:nonzero;"/>
        </g>
    </g>
</svg>
